<svg width="148" height="32" viewBox="0 0 148 32" fill="none" xmlns="http://www.w3.org/2000/svg">
<path fill-rule="evenodd" clip-rule="evenodd" d="M16 0L32 6.35918V32H0V6.35918L16 0ZM5.33333 9.94699V26.7007H13.3333V6.7674L5.33333 9.94699ZM18.6667 6.7674V14.7772H26.6667V9.94699L18.6667 6.7674ZM26.6667 20.0765H18.6667V26.7007H26.6667V20.0765Z" fill="#F5F6FA"/>
<path d="M145.918 26.3125C144.788 27.1146 143.551 27.5156 142.208 27.5156C141.212 27.5156 140.316 27.303 139.52 26.8776C138.73 26.4462 138.104 25.8629 137.642 25.1276C137.186 24.3924 136.958 23.5629 136.958 22.6393C136.958 21.7583 137.165 20.9714 137.578 20.2787C137.997 19.5859 138.566 19.0391 139.283 18.638C140 18.237 140.814 18.0365 141.725 18.0365C142.667 18.0365 143.497 18.2583 144.214 18.7018C144.931 19.1393 145.49 19.753 145.891 20.543C146.292 21.3268 146.492 22.2353 146.492 23.2682V23.5599H139.775C139.884 23.9184 140.063 24.2344 140.312 24.5078C140.562 24.7752 140.872 24.9879 141.242 25.1458C141.613 25.3038 142.038 25.3828 142.518 25.3828C143.448 25.3828 144.314 25.082 145.116 24.4805L145.918 26.3125ZM139.656 22.2292H144.077C144.028 21.8342 143.904 21.4879 143.703 21.1901C143.509 20.8863 143.25 20.6493 142.928 20.4792C142.612 20.309 142.257 20.224 141.862 20.224C141.461 20.224 141.102 20.3121 140.786 20.4883C140.477 20.6645 140.224 20.9015 140.03 21.1992C139.836 21.497 139.711 21.8403 139.656 22.2292Z" fill="#F5F6FA"/>
<path d="M128.737 26.5495L129.311 24.3255C129.493 24.5261 129.737 24.7114 130.04 24.8815C130.35 25.0517 130.681 25.1884 131.034 25.2917C131.392 25.3889 131.73 25.4375 132.046 25.4375C132.422 25.4375 132.717 25.3676 132.93 25.2279C133.142 25.082 133.249 24.8876 133.249 24.6445C133.249 24.444 133.176 24.2769 133.03 24.1432C132.89 24.0035 132.699 23.882 132.456 23.7787C132.219 23.6693 131.954 23.5629 131.663 23.4596C131.268 23.3077 130.861 23.1315 130.441 22.931C130.028 22.7305 129.679 22.457 129.393 22.1107C129.108 21.7643 128.965 21.3056 128.965 20.7344C128.965 20.1875 129.108 19.7136 129.393 19.3125C129.679 18.9054 130.083 18.5925 130.605 18.3737C131.128 18.1489 131.736 18.0365 132.428 18.0365C133.553 18.0365 134.674 18.319 135.792 18.8841L135.053 20.9531C134.859 20.8012 134.616 20.6615 134.324 20.5339C134.033 20.4002 133.732 20.2938 133.422 20.2149C133.118 20.1359 132.845 20.0964 132.602 20.0964C132.304 20.0964 132.07 20.1571 131.9 20.2787C131.736 20.4002 131.654 20.5673 131.654 20.78C131.654 20.9379 131.711 21.0807 131.827 21.2083C131.942 21.3299 132.112 21.4484 132.337 21.5638C132.568 21.6732 132.851 21.7917 133.185 21.9193C133.598 22.0712 134.014 22.2535 134.434 22.4662C134.859 22.6728 135.214 22.9523 135.5 23.3047C135.792 23.6511 135.937 24.1129 135.937 24.6901C135.937 25.2552 135.783 25.7504 135.473 26.1758C135.169 26.6011 134.737 26.9323 134.178 27.1693C133.625 27.4002 132.975 27.5156 132.228 27.5156C130.982 27.5156 129.819 27.1936 128.737 26.5495Z" fill="#F5F6FA"/>
<path d="M127.151 27.3333H125.027L124.936 25.875C124.614 26.4097 124.186 26.8168 123.651 27.0964C123.122 27.3759 122.503 27.5156 121.792 27.5156C120.625 27.5156 119.71 27.1571 119.048 26.4401C118.386 25.7231 118.055 24.7387 118.055 23.487V18.2188H120.671V22.8854C120.671 23.5964 120.838 24.1554 121.172 24.5625C121.512 24.9635 121.974 25.1641 122.557 25.1641C123.165 25.1641 123.645 24.9544 123.997 24.5352C124.356 24.1098 124.535 23.5356 124.535 22.8125V18.2188H127.151V27.3333Z" fill="#F5F6FA"/>
<path d="M111.702 27.5156C110.766 27.5156 109.928 27.3121 109.186 26.905C108.445 26.4918 107.862 25.9297 107.436 25.2188C107.017 24.5017 106.807 23.6875 106.807 22.7761C106.807 21.8707 107.017 21.0625 107.436 20.3516C107.862 19.6346 108.445 19.0695 109.186 18.6563C109.928 18.2431 110.766 18.0365 111.702 18.0365C112.638 18.0365 113.47 18.2431 114.199 18.6563C114.934 19.0695 115.512 19.6346 115.931 20.3516C116.356 21.0625 116.569 21.8707 116.569 22.7761C116.569 23.6875 116.356 24.5017 115.931 25.2188C115.512 25.9297 114.934 26.4918 114.199 26.905C113.47 27.3121 112.638 27.5156 111.702 27.5156ZM111.693 25.1732C112.112 25.1732 112.486 25.0699 112.814 24.8633C113.148 24.6506 113.409 24.365 113.598 24.0065C113.792 23.6419 113.889 23.2257 113.889 22.7578C113.889 22.3082 113.792 21.9041 113.598 21.5456C113.409 21.1871 113.148 20.9045 112.814 20.6979C112.486 20.4853 112.112 20.3789 111.693 20.3789C111.267 20.3789 110.888 20.4853 110.553 20.6979C110.225 20.9045 109.964 21.1871 109.77 21.5456C109.581 21.9041 109.487 22.3082 109.487 22.7578C109.487 23.2257 109.581 23.6419 109.77 24.0065C109.964 24.365 110.225 24.6506 110.553 24.8633C110.888 25.0699 111.267 25.1732 111.693 25.1732Z" fill="#F5F6FA"/>
<path d="M96.4167 27.3333H93.6094V13.6615H96.4167V19.3763H102.332V13.6615H105.139V27.3333H102.332V21.8281H96.4167V27.3333Z" fill="#F5F6FA"/>
<path d="M87.3385 27.3333H84.7227V22.6667C84.7227 21.9557 84.5525 21.3997 84.2122 20.9987C83.878 20.5916 83.4193 20.388 82.8359 20.388C82.2283 20.388 81.7452 20.6007 81.3867 21.0261C81.0343 21.4453 80.8581 22.0165 80.8581 22.7396V27.3333H78.2422V18.2188H80.3568L80.4479 19.6771C80.776 19.1424 81.2044 18.7353 81.7331 18.4557C82.2617 18.1762 82.8845 18.0365 83.6016 18.0365C84.7622 18.0365 85.6736 18.395 86.3359 19.112C87.0043 19.8229 87.3385 20.8073 87.3385 22.0651V27.3333Z" fill="#F5F6FA"/>
<path d="M76.2005 27.3333H73.9219L73.7852 26.2487C73.4509 26.6497 73.0378 26.9627 72.5456 27.1875C72.0534 27.4063 71.5126 27.5156 70.9232 27.5156C70.2852 27.5156 69.717 27.3941 69.2187 27.1511C68.7205 26.9019 68.3286 26.5616 68.043 26.1302C67.7574 25.6927 67.6146 25.1975 67.6146 24.6445C67.6146 24.0612 67.7695 23.5478 68.0794 23.1042C68.3893 22.6606 68.8147 22.3142 69.3555 22.0651C69.9023 21.8099 70.5221 21.6823 71.2148 21.6823C71.622 21.6823 72.0291 21.7279 72.4362 21.819C72.8494 21.9102 73.2322 22.0378 73.5846 22.2018V21.9649C73.5846 21.6003 73.4813 21.2873 73.2747 21.0261C73.0742 20.7587 72.7947 20.5521 72.4362 20.4063C72.0838 20.2604 71.6888 20.1875 71.2513 20.1875C70.832 20.1875 70.4158 20.2544 70.0026 20.388C69.5955 20.5217 69.2187 20.7222 68.8724 20.9896L68.1615 18.9935C68.7752 18.6775 69.395 18.4405 70.0208 18.2826C70.6528 18.1185 71.2634 18.0365 71.8529 18.0365C72.74 18.0365 73.5087 18.2127 74.1588 18.5651C74.809 18.9115 75.3103 19.4037 75.6628 20.0417C76.0213 20.6736 76.2005 21.4241 76.2005 22.293V27.3333ZM71.4974 25.5013C71.8437 25.5013 72.1749 25.4254 72.4909 25.2734C72.8069 25.1215 73.0621 24.9149 73.2565 24.6537C73.457 24.3924 73.5634 24.1037 73.5755 23.7878V23.724C73.3082 23.5417 73.0104 23.4019 72.6823 23.3047C72.3602 23.2014 72.0321 23.1497 71.6979 23.1497C71.1996 23.1497 70.7925 23.2591 70.4766 23.4779C70.1606 23.6966 70.0026 23.9792 70.0026 24.3255C70.0026 24.5504 70.0664 24.7539 70.194 24.9362C70.3277 25.1124 70.5069 25.2522 70.7318 25.3555C70.9566 25.4527 71.2118 25.5013 71.4974 25.5013Z" fill="#F5F6FA"/>
<path d="M65.8372 26.3125C64.707 27.1146 63.4705 27.5156 62.1276 27.5156C61.1311 27.5156 60.2348 27.303 59.4388 26.8776C58.6489 26.4462 58.023 25.8629 57.5612 25.1276C57.1055 24.3924 56.8776 23.5629 56.8776 22.6393C56.8776 21.7583 57.0842 20.9714 57.4974 20.2787C57.9167 19.5859 58.4848 19.0391 59.2018 18.638C59.9188 18.237 60.7331 18.0365 61.6445 18.0365C62.5864 18.0365 63.4158 18.2583 64.1328 18.7018C64.8498 19.1393 65.4088 19.753 65.8099 20.543C66.2109 21.3268 66.4115 22.2353 66.4115 23.2682V23.5599H59.694C59.8034 23.9184 59.9826 24.2344 60.2318 24.5078C60.4809 24.7752 60.7908 24.9879 61.1615 25.1458C61.5321 25.3038 61.9575 25.3828 62.4375 25.3828C63.3672 25.3828 64.2331 25.082 65.0352 24.4805L65.8372 26.3125ZM59.5755 22.2292H63.9961C63.9475 21.8342 63.8229 21.4879 63.6224 21.1901C63.4279 20.8863 63.1697 20.6493 62.8477 20.4792C62.5317 20.309 62.1762 20.224 61.7812 20.224C61.3802 20.224 61.0217 20.3121 60.7057 20.4883C60.3958 20.6645 60.1437 20.9015 59.9492 21.1992C59.7548 21.497 59.6302 21.8403 59.5755 22.2292Z" fill="#F5F6FA"/>
<path d="M55.2096 27.3333H52.4115V13.2969H55.2096V27.3333Z" fill="#F5F6FA"/>
<path d="M50.5885 25.6198C49.9505 26.2396 49.194 26.7257 48.319 27.0781C47.444 27.4306 46.4931 27.6068 45.4661 27.6068C44.4271 27.6068 43.4701 27.4306 42.5951 27.0781C41.7201 26.7196 40.9575 26.2214 40.3073 25.5833C39.6632 24.9392 39.1619 24.1858 38.8034 23.3229C38.4449 22.4601 38.2656 21.5182 38.2656 20.4974C38.2656 19.4766 38.4449 18.5347 38.8034 17.6719C39.1619 16.803 39.6632 16.0495 40.3073 15.4115C40.9575 14.7734 41.7201 14.2782 42.5951 13.9258C43.4701 13.5673 44.4271 13.388 45.4661 13.388C46.487 13.388 47.4319 13.5642 48.3008 13.9167C49.1758 14.2691 49.9323 14.7583 50.5703 15.3841L48.6107 17.3529C48.2279 16.885 47.76 16.5174 47.207 16.25C46.6602 15.9766 46.0647 15.8399 45.4206 15.8399C44.8069 15.8399 44.2387 15.9583 43.7161 16.1953C43.1997 16.4262 42.747 16.7544 42.3581 17.1797C41.9692 17.599 41.6684 18.0912 41.4557 18.6563C41.2431 19.2214 41.1367 19.832 41.1367 20.4883C41.1367 21.1567 41.2431 21.7734 41.4557 22.3386C41.6684 22.9037 41.9692 23.3989 42.3581 23.8242C42.747 24.2435 43.1997 24.5716 43.7161 24.8086C44.2387 25.0395 44.8069 25.155 45.4206 25.155C46.0647 25.155 46.6602 25.0213 47.207 24.7539C47.7539 24.4805 48.2187 24.1098 48.6016 23.6419L50.5885 25.6198Z" fill="#F5F6FA"/>
</svg>
